<svg xmlns="http://www.w3.org/2000/svg" width="1201" height="1200" viewBox="0 0 1201 1200" version="1.1">
	<path d="M 595 190.633 C 593.625 190.902, 589.013 192.045, 584.750 193.171 L 577 195.219 577 203.538 L 577 211.856 571.250 212.459 C 568.087 212.791, 562.219 213.499, 558.209 214.031 C 545.182 215.762, 546 216.233, 546 207 L 546 199 537.393 199 C 529.910 199, 527.972 199.388, 522.554 201.974 C 515.305 205.434, 507.900 212.812, 504.679 219.783 C 502.649 224.177, 502.500 226.006, 502.500 246.500 C 502.500 267.872, 502.557 268.497, 504.500 268.385 C 505.600 268.321, 511 267.338, 516.500 266.199 C 546.384 260.013, 581.802 256, 606.513 256 C 629.053 256, 665.537 259.954, 691.500 265.211 C 699.750 266.881, 707.400 268.304, 708.500 268.374 C 710.444 268.496, 710.500 267.875, 710.500 246 L 710.500 223.500 707.636 218.332 C 703.689 211.210, 697.531 205.205, 691 202.108 C 686.339 199.898, 684.127 199.500, 676.500 199.500 L 667.500 199.500 667.205 207.385 L 666.911 215.271 661.205 214.608 C 658.067 214.243, 651.579 213.544, 646.786 213.054 C 641.993 212.564, 637.606 211.874, 637.036 211.522 C 636.464 211.169, 636 207.374, 636 203.051 L 636 195.219 627.750 192.979 C 619.700 190.794, 601.012 189.455, 595 190.633 M 596.048 201.168 C 592.500 201.675, 589.029 202.561, 588.336 203.136 C 587.546 203.792, 586.968 207.415, 586.788 212.841 L 586.500 221.500 582.500 221.773 C 580.300 221.923, 570.625 223.022, 561 224.215 C 551.375 225.408, 541.700 226.410, 539.500 226.442 L 535.500 226.500 535.210 217.679 L 534.920 208.859 531.710 209.521 C 527.826 210.322, 521.366 214.295, 518.124 217.876 C 513.705 222.758, 513 226.003, 513 241.468 C 513 249.461, 513.164 256, 513.364 256 C 513.563 256, 516.151 255.527, 519.114 254.948 C 530.170 252.789, 547.962 250.082, 562.500 248.346 C 583.303 245.862, 630.435 245.875, 651 248.370 C 666.554 250.257, 686.989 253.444, 693.500 254.998 C 701.629 256.938, 701.187 257.738, 700.824 241.750 C 700.537 229.148, 700.225 226.941, 698.120 222.665 C 695.416 217.173, 688.646 211.617, 682.607 209.932 C 677.541 208.519, 677.035 209.363, 677.015 219.250 L 677 227 673.750 226.976 C 671.962 226.962, 668.700 226.545, 666.500 226.049 C 662.939 225.245, 639.181 222.456, 630 221.764 L 626.500 221.500 626.212 212.841 C 626.039 207.608, 625.445 203.785, 624.712 203.178 C 623.400 202.091, 609.535 199.923, 605.178 200.123 C 603.705 200.191, 599.597 200.662, 596.048 201.168 M 576.500 275.575 C 534.347 278.483, 488.631 287.138, 453 298.956 C 442.040 302.591, 424.836 309.098, 418.180 312.125 C 414.704 313.706, 411.615 315, 411.314 315 C 410.487 315, 386.100 327.287, 378.579 331.493 L 371.970 335.189 372.235 556.345 L 372.500 777.500 374.726 783.336 C 379.493 795.837, 386.105 804.483, 400.500 817.042 C 420.776 834.730, 477.253 884.141, 480 886.595 C 484.129 890.282, 514.608 917.084, 530.992 931.434 C 537.313 936.970, 544.063 942.913, 545.992 944.639 C 567.888 964.233, 587.972 981.185, 591.338 982.912 C 599.884 987.298, 611.451 987.401, 621 983.175 C 623.475 982.079, 632.071 975.396, 640.103 968.323 C 648.135 961.250, 657.782 952.772, 661.540 949.482 C 665.298 946.192, 674.253 938.325, 681.438 932 C 688.624 925.675, 699.902 915.776, 706.501 910.002 C 713.101 904.228, 718.725 899.268, 719 898.980 C 719.275 898.692, 732.325 887.226, 748 873.501 C 763.675 859.777, 780.550 844.980, 785.500 840.621 C 790.450 836.261, 801.355 826.678, 809.734 819.326 C 829.876 801.650, 835.265 794.351, 839.139 779.500 C 840.881 772.826, 840.967 762.311, 840.983 553.814 L 841 335.129 831.074 329.686 C 820.931 324.124, 808.430 317.938, 799.500 314.061 C 796.750 312.868, 793.600 311.468, 792.500 310.952 C 791.400 310.435, 785.550 308.168, 779.500 305.913 C 738.838 290.761, 705.503 283.103, 653.500 276.967 C 644.068 275.855, 587.320 274.828, 576.500 275.575 M 580.500 285.609 C 547.009 287.748, 509.039 293.724, 482.500 301.032 C 478.100 302.243, 473.150 303.564, 471.500 303.967 C 464.352 305.713, 436.998 315.333, 425.865 320.016 C 412.508 325.634, 389.063 337.138, 384.750 340.190 L 382 342.136 382 530.884 C 382 656.364, 382.347 721.622, 383.034 725.566 C 385.352 738.866, 390.561 746.857, 405.656 760.268 C 412.170 766.056, 431.450 783.046, 448.500 798.024 C 465.550 813.002, 482.425 827.829, 486 830.972 C 489.575 834.115, 501.725 844.732, 513 854.564 C 524.275 864.397, 533.725 872.690, 534 872.994 C 534.275 873.298, 545.300 882.973, 558.500 894.493 C 571.700 906.013, 584.525 917.368, 587 919.727 C 596.218 928.512, 606.570 931.196, 615.532 927.125 C 617.749 926.117, 627.649 918.193, 637.532 909.514 C 647.414 900.835, 658.645 890.982, 662.489 887.617 C 666.333 884.253, 671.733 879.451, 674.489 876.946 C 677.245 874.441, 681.331 870.841, 683.569 868.946 C 685.807 867.051, 699.982 854.661, 715.069 841.414 C 751.637 809.306, 792.856 773.191, 801.500 765.684 C 815.151 753.829, 822.402 745.792, 826.023 738.500 L 829.500 731.500 829.760 536.338 L 830.020 341.175 826.760 339.167 C 821.816 336.120, 802.318 326.490, 792.881 322.434 C 749.605 303.833, 705.787 292.881, 651 286.970 C 641.805 285.978, 590.294 284.983, 580.500 285.609 M 614.429 310.885 C 614.729 311.371, 617.074 312.084, 619.639 312.469 C 630.724 314.131, 652.178 322.788, 665.500 330.975 C 699.204 351.687, 718.081 380.213, 721.433 415.500 L 722.098 422.500 712.190 412 C 689.730 388.197, 661.958 374.382, 622.500 367.382 C 609.544 365.083, 562.443 364.805, 541.474 366.903 C 524.032 368.648, 518.735 367.735, 512.989 361.989 C 507.306 356.306, 505.869 350.717, 506.058 335.032 C 506.145 327.801, 505.993 321.660, 505.719 321.386 C 504.457 320.123, 470.648 329.743, 449.349 337.425 C 442.928 339.741, 419.083 350.051, 413.500 352.926 L 408.500 355.500 408.245 461.945 C 408.105 520.490, 408.354 568.754, 408.798 569.198 C 409.242 569.642, 412.281 569.461, 415.553 568.796 C 425.568 566.760, 475.849 567.125, 491 569.344 C 514.261 572.750, 537.067 577.987, 555.500 584.155 C 574.612 590.550, 601.466 602.798, 616.352 611.909 C 620.028 614.159, 623.242 616, 623.495 616 C 625.080 616, 649.914 633.770, 662.500 643.910 C 678.275 656.620, 687.326 662.004, 700.437 666.478 C 728.705 676.122, 764.203 668.750, 774.750 651.044 C 777.654 646.169, 778 644.779, 778 637.976 C 778 618.956, 771.195 608.032, 750 593.025 C 724.973 575.307, 718.554 564.227, 718.696 539 C 718.757 528.202, 719.132 525.412, 721.453 518.505 C 725.684 505.914, 731.476 497.671, 740.418 491.512 C 755.758 480.947, 774.031 480.201, 788.636 489.544 C 793.219 492.475, 795.813 495.263, 803.209 505.203 C 804.826 507.376, 804.907 503.400, 804.709 431.600 L 804.500 355.699 799.172 352.821 C 796.242 351.238, 787.017 347.077, 778.672 343.573 C 736.788 325.989, 695.500 316.107, 644.734 311.516 C 625.925 309.815, 613.609 309.559, 614.429 310.885 M 570 376.090 C 571.925 377.313, 575.525 379.572, 578 381.109 C 584.404 385.089, 592.081 393.362, 596.912 401.492 C 601.580 409.349, 603.849 415.906, 604.699 424 C 605.016 427.025, 605.849 430.625, 606.549 432 C 609.583 437.961, 619.111 443.963, 636.500 450.867 C 672.103 465.003, 685.378 472.336, 697.869 484.767 C 702.472 489.347, 706.340 492.961, 706.464 492.798 C 706.589 492.634, 708.308 488.675, 710.285 484 C 714.891 473.110, 717.661 463.074, 719.571 450.365 C 721.067 440.416, 721.055 440.158, 718.939 436.365 C 711.425 422.892, 697.227 408.362, 682.580 399.156 C 671.662 392.293, 655.076 384.915, 643 381.549 C 624.592 376.417, 613.082 374.884, 589 374.358 L 566.500 373.867 570 376.090 M 517.178 379.610 C 508.982 382.481, 492.299 392.699, 481.750 401.309 C 477.541 404.745, 477 405.635, 477 409.133 C 477 413.707, 480.008 420.192, 483.150 422.392 C 485.913 424.328, 486.498 423.923, 489.500 418 C 492.299 412.476, 493.838 411.135, 495.096 413.122 C 496.808 415.824, 495.949 419.051, 492.502 422.866 C 488.982 426.762, 485.995 433.433, 486.006 437.376 C 486.009 438.544, 486.490 441.223, 487.075 443.330 C 487.915 446.357, 488.909 447.486, 491.819 448.717 C 495.163 450.131, 496.691 450.123, 508.500 448.624 C 525.465 446.471, 528.522 446.522, 531 449 C 533.675 451.675, 533.521 454.570, 530.545 457.545 C 527.581 460.510, 521.890 460.791, 511.032 458.507 C 496.723 455.497, 493.043 456.264, 490.300 462.827 C 489.065 465.781, 489.110 466.566, 490.704 469.827 C 493.329 475.195, 496.538 475.931, 514.500 475.285 C 527.858 474.805, 531.226 475.046, 545.265 477.488 C 562.758 480.531, 566.358 480.281, 574.652 475.450 C 578.710 473.085, 587.433 462.973, 589.703 458 C 593.673 449.306, 594.498 445.270, 594.407 435 C 594.172 408.443, 581.778 390.838, 557.404 382.437 C 545 378.162, 525.269 376.775, 517.178 379.610 M 521.388 391.980 C 516.178 394.085, 513.134 402.206, 516.505 405.004 C 518.359 406.542, 523.844 405.779, 531.490 402.918 C 536.129 401.182, 537 400.465, 537 398.383 C 537 394.317, 532.815 390.989, 527.795 391.063 C 525.433 391.098, 522.550 391.511, 521.388 391.980 M 604.122 447.198 C 603.645 448.464, 602.926 451.009, 602.525 452.854 C 602.124 454.699, 599.949 460.324, 597.693 465.354 C 593.657 474.351, 593.590 474.688, 593.591 486 C 593.592 500.935, 596.250 509.846, 603.648 519.710 C 611.392 530.036, 621.664 537.251, 647.500 550.512 C 675.698 564.985, 679.560 567.265, 691.766 576.647 C 696.312 580.141, 700.206 583, 700.420 583 C 700.633 583, 699.984 580.831, 698.977 578.181 C 695.585 569.255, 693.998 557.520, 694.036 541.640 C 694.072 526.007, 694.956 520.268, 698.935 509.809 L 701.100 504.118 698.380 499.809 C 694.038 492.932, 685.177 484.805, 675.997 479.281 C 668.719 474.901, 664.288 472.677, 651.500 466.983 C 650.400 466.493, 644.325 464.020, 638 461.488 C 622.694 455.360, 614.660 451.550, 609.368 447.909 L 604.990 444.897 604.122 447.198 M 573.447 502.750 C 558.982 522.069, 537.704 546.767, 526.181 557.613 C 523.193 560.426, 521.146 562.972, 521.632 563.272 C 522.118 563.573, 524.312 564.129, 526.508 564.509 C 532.884 565.613, 548.124 569.719, 557.907 572.969 C 596.714 585.862, 632.588 606.154, 668.345 635.437 C 680.442 645.344, 684.125 647.994, 690.415 651.320 C 695.183 653.840, 695.419 653.867, 698.276 652.209 C 708.270 646.410, 714.372 629.599, 710.951 617.289 C 706.723 602.076, 688.599 583.170, 666.607 571.033 C 663.366 569.244, 652.993 563.842, 643.556 559.029 C 617.463 545.719, 606.968 538.545, 598.410 528.170 C 590.690 518.810, 585 505.755, 585 497.400 C 585 493.729, 584.154 491, 583.015 491 C 582.591 491, 578.286 496.288, 573.447 502.750 M 760 505.941 C 745.448 509.201, 739.025 519.170, 739.023 538.500 C 739.020 556.793, 744.128 564.416, 768.486 582.474 C 776.744 588.596, 785.891 596.033, 788.812 599.001 C 794.246 604.521, 799.848 613.568, 801.962 620.236 C 802.613 622.291, 803.563 624.230, 804.073 624.545 C 804.633 624.891, 805 614.825, 805 599.098 L 805 573.077 800.140 571.634 C 792.669 569.416, 784.858 565.426, 780.234 561.468 C 773.918 556.062, 772.915 551.619, 774.596 536.500 C 775.330 529.900, 776.366 522.925, 776.898 521 C 777.429 519.075, 778.164 515.412, 778.529 512.860 C 779.187 508.269, 779.158 508.208, 775.847 507.163 C 770.856 505.589, 763.949 505.056, 760 505.941 M 442.584 595.612 C 442.198 597.200, 440.969 600.413, 439.852 602.750 L 437.822 607 426.411 607 L 415 607 415.045 647.250 L 415.089 687.500 453.326 648.892 L 491.562 610.284 497.031 612.029 C 508.725 615.762, 529 626.240, 529 628.551 C 529 629.209, 508.551 646.566, 483.557 667.123 C 458.563 687.680, 438.088 704.869, 438.057 705.321 C 438.026 705.772, 439.800 708.276, 442 710.885 C 444.200 713.494, 446 716.564, 446 717.707 C 446 719.707, 438.983 726.901, 429.954 734.157 C 427.779 735.905, 426 737.691, 426 738.127 C 426 738.562, 433.538 745.528, 442.750 753.605 C 451.962 761.682, 462.485 770.932, 466.134 774.160 C 474.964 781.973, 477.599 784, 478.923 784 C 479.533 784, 483.321 781.300, 487.342 778 C 491.859 774.292, 495.587 772, 497.099 772 C 498.830 772, 501.880 774.347, 507.506 780.006 C 511.883 784.409, 515.790 787.897, 516.188 787.756 C 516.585 787.615, 520.065 783.054, 523.921 777.620 C 529.001 770.462, 530.708 767.295, 530.120 766.120 C 525.541 756.984, 523.903 724.790, 527.341 711.500 C 531.877 693.966, 542.406 678.436, 556.453 668.560 C 565.326 662.322, 565.123 662.310, 569.739 669.340 C 580.966 686.439, 589.174 708.515, 590.920 726.310 L 591.588 733.120 584.803 737.631 C 576.345 743.254, 570.306 750.621, 567.753 758.432 C 567.201 760.119, 566.244 764.914, 565.625 769.087 L 564.500 776.675 550 789.068 C 542.025 795.884, 535.002 801.920, 534.392 802.481 C 533.783 803.041, 529.621 806.612, 525.142 810.415 C 520.664 814.219, 517 817.645, 517 818.030 C 517 818.414, 522.063 823.173, 528.250 828.605 C 534.438 834.037, 539.725 838.725, 540 839.024 C 540.415 839.476, 568.269 863.924, 604.059 895.250 C 608.300 898.962, 612.047 902, 612.385 902 C 612.723 902, 613.007 895.138, 613.015 886.750 C 613.035 866.210, 612.777 866.641, 625.415 866 L 635.279 865.500 644.489 843.826 C 649.555 831.906, 654.408 820.656, 655.273 818.826 C 659.072 810.792, 659.040 810.717, 649.584 805.687 C 619.094 789.467, 602 763.820, 602 734.292 C 601.999 708.578, 588.656 674.721, 569.174 651 C 540.416 615.985, 501.345 596.465, 453.893 593.407 L 443.286 592.724 442.584 595.612 M 803.092 655.500 C 802.318 657.150, 800.606 660.975, 799.287 664 C 797.969 667.025, 794.781 672.650, 792.202 676.500 C 786.904 684.410, 767.169 704.601, 750 719.678 C 723.610 742.852, 706.891 763.156, 701.047 779.127 C 698.888 785.028, 697.072 793.367, 697.036 797.552 C 696.998 801.814, 697.188 801.508, 670.623 840.250 C 665.814 847.263, 662.293 853, 662.798 853 C 663.303 853, 680.993 837.871, 702.108 819.381 C 750.744 776.791, 753.515 774.356, 758.981 769.416 C 761.467 767.169, 771.150 758.646, 780.500 750.475 C 799.130 734.194, 799.066 734.259, 802.273 728.500 C 804.412 724.657, 804.512 723.340, 804.810 695 C 804.980 678.775, 804.980 662.575, 804.810 659 C 804.504 652.576, 804.483 652.535, 803.092 655.500 M 382.587 753.747 C 381.644 754.689, 381.925 765.943, 383.067 772.981 C 385.581 788.481, 391.128 795.257, 426.468 826 C 446.269 843.225, 491.790 883.070, 503 892.989 C 506.575 896.152, 519.400 907.430, 531.500 918.051 C 543.600 928.672, 560.428 943.468, 568.896 950.931 C 596.126 974.929, 597.723 976, 606.283 976 C 615.022 976, 616.641 974.864, 652.243 943.727 C 671.084 927.249, 688.343 912.131, 690.595 910.133 C 695.333 905.929, 707.926 894.858, 734 871.971 C 744.175 863.040, 754.075 854.325, 756 852.604 C 757.925 850.884, 772.100 838.464, 787.500 825.004 C 802.900 811.545, 815.956 800.075, 816.514 799.516 C 819.809 796.216, 824.391 789.393, 826.711 784.333 C 829.074 779.179, 829.432 776.987, 829.781 765.500 L 830.176 752.500 825.338 757.714 C 822.677 760.582, 812.175 770.200, 802 779.088 C 791.825 787.975, 772.952 804.529, 760.061 815.873 C 747.170 827.218, 730.745 841.612, 723.561 847.859 C 716.377 854.107, 708.925 860.634, 707 862.363 C 703.879 865.166, 677.848 887.996, 642 919.368 C 627.145 932.368, 624.794 934.434, 614.830 943.250 C 610.634 946.962, 606.942 950, 606.626 950 C 606.122 950, 598.180 943.185, 574 922.005 C 559.381 909.199, 514.737 869.992, 504.061 860.582 C 497.769 855.037, 486.744 845.388, 479.561 839.141 C 472.377 832.893, 464.925 826.362, 463 824.627 C 461.075 822.893, 445.100 808.891, 427.500 793.512 C 409.900 778.132, 392.727 762.762, 389.337 759.355 C 385.947 755.948, 382.909 753.424, 382.587 753.747" stroke="none" fill="black" fill-rule="evenodd"/>
</svg>